<?xml version="1.0" encoding="UTF-8"?><svg id="Layer_1" xmlns="http://www.w3.org/2000/svg" viewBox="0 0 96.87 49.55"><defs><style>.cls-1{letter-spacing:0em;}.cls-1,.cls-2{font-size:12.24px;}.cls-2{letter-spacing:0em;}.cls-3{stroke-width:.56px;}.cls-3,.cls-4,.cls-5{stroke:#000;}.cls-3,.cls-4,.cls-5,.cls-6{fill:none;stroke-miterlimit:10;}.cls-4{stroke-width:1.11px;}.cls-5{stroke-width:1.11px;}.cls-7{fill:#6c3;}.cls-6{stroke:#fff;stroke-width:.56px;}.cls-8{letter-spacing:0em;}.cls-8,.cls-9{font-size:18.35px;}.cls-10{fill:#5c98ff;}.cls-11{font-size:13.26px;}.cls-12{fill:#fff;font-family:Poppins-SemiBold, Poppins;font-weight:600;}</style></defs><g><g><path class="cls-7" d="M48.08,16.34c.97,2.63,1.5,5.47,1.5,8.43,0,6.26-2.36,11.97-6.25,16.3l-.06-.05-9.77-10.1,14.58-14.58Z"/><path class="cls-10" d="M48.08,16.34l-14.58,14.58-7.24-7.48-3.3-.09c2.61-2.3,3.25-15.04,3.2-16.46v-.02l.21-6.54c10.01,.57,18.42,7.07,21.72,16.02Z"/><path class="cls-7" d="M43.27,41.02l.06,.05c-4.51,5.03-11.08,8.2-18.4,8.2-2.92,0-5.74-.51-8.34-1.44l16.91-16.91,9.77,10.1Z"/><path class="cls-10" d="M26.25,23.44l7.24,7.48-16.91,16.91C7.08,44.43,.28,35.39,.28,24.77,.28,17.67,3.32,11.27,8.19,6.79l.07,.07c-.09,1.95,1.37,29.83,8.75,9.38h.41c2.45,6.79,4.25,8.25,5.55,7.1l3.3,.09Z"/><path class="cls-7" d="M26.15,6.88c.05,1.42-.58,14.17-3.2,16.46-1.3,1.15-3.1-.31-5.55-7.1h-.41c-7.38,20.45-8.83-7.43-8.75-9.38l-.07-.07C12.58,2.75,18.47,.28,24.93,.28c.48,0,.96,.01,1.43,.04l-.21,6.54v.02Z"/></g><g><polyline class="cls-5" points="43.27 41.02 33.5 30.92 26.25 23.44"/><polyline class="cls-5" points="16.58 47.84 16.59 47.83 33.5 30.92 48.08 16.34 48.11 16.31"/><path class="cls-5" d="M8.26,6.87c-.09,1.95,1.37,29.83,8.75,9.38l.13-.37"/><path class="cls-5" d="M26.15,6.88c.05,1.42-.58,14.17-3.2,16.46-1.3,1.15-3.1-.31-5.55-7.1l-.13-.37"/><polyline class="cls-5" points="26.15 7.08 26.15 6.88 26.15 6.86 26.36 .32 26.36 .27"/><polyline class="cls-4" points="17.8 16.24 17.41 16.25 17 16.25 16.62 16.25"/><line class="cls-3" x1="8.55" y1="6.52" x2="8.52" y2="7.13"/><path class="cls-6" d="M48.08,16.34c.97,2.63,1.5,5.47,1.5,8.43,0,6.26-2.36,11.97-6.25,16.3-4.51,5.03-11.08,8.2-18.4,8.2-2.92,0-5.74-.51-8.34-1.44C7.08,44.43,.28,35.39,.28,24.77,.28,17.67,3.32,11.27,8.19,6.79,12.58,2.75,18.47,.28,24.93,.28c.48,0,.96,.01,1.43,.04,10.01,.57,18.42,7.07,21.72,16.02Z"/></g></g><text class="cls-12" transform="translate(49.13 21.93)"><tspan class="cls-9" x="0" y="0">W</tspan><tspan class="cls-2" x="18.79" y="0">orld</tspan><tspan class="cls-11" x="0" y="16.31"> </tspan><tspan class="cls-8" x="3.15" y="16.31">X</tspan><tspan class="cls-1" x="15.75" y="16.31">plore</tspan></text></svg>