<?xml version="1.0" encoding="UTF-8"?><svg id="Layer_1" xmlns="http://www.w3.org/2000/svg" viewBox="0 0 95.02 48.62"><defs><style>.cls-1{stroke-width:.55px;}.cls-1,.cls-2,.cls-3,.cls-4{fill:none;stroke-miterlimit:10;}.cls-1,.cls-2,.cls-4{stroke:#000;}.cls-2{stroke-width:1.09px;}.cls-5{font-size:13px;}.cls-3{stroke:#fff;stroke-width:.57px;}.cls-6{fill:#6c3;}.cls-7{font-family:Poppins-SemiBold, Poppins;font-weight:600;}.cls-8{font-size:12px;}.cls-9{fill:#5c98ff;}.cls-4{stroke-width:1.09px;}.cls-10{font-size:18px;}</style></defs><g><g><path class="cls-6" d="M47.17,16.04c.95,2.58,1.47,5.37,1.47,8.27,0,6.14-2.32,11.74-6.13,15.98l-.05-.05-9.59-9.9,14.3-14.3Z"/><path class="cls-6" d="M25.66,6.76c.05,1.39-.57,13.89-3.14,16.15-1.28,1.13-3.04-.3-5.44-6.96h-.4c-7.24,20.06-8.66-7.28-8.58-9.2l-.07-.07C12.35,2.71,18.12,.28,24.46,.28c.47,0,.94,.01,1.4,.04l-.2,6.41v.02Z"/><path class="cls-9" d="M25.86,.33c9.82,.56,18.07,6.93,21.3,15.71l-14.3,14.3-7.11-7.34-3.23-.09c2.56-2.25,3.18-14.76,3.14-16.15v-.02l.2-6.41Z"/><path class="cls-6" d="M32.86,30.34l9.59,9.9,.05,.05c-4.42,4.93-10.87,8.04-18.04,8.04-2.87,0-5.63-.5-8.18-1.41l16.58-16.58Z"/><path class="cls-9" d="M25.76,23l7.11,7.34-16.58,16.58C6.95,43.59,.28,34.72,.28,24.31,.28,17.34,3.27,11.06,8.04,6.67l.07,.07c-.09,1.91,1.34,29.26,8.58,9.2h.4c2.4,6.66,4.17,8.09,5.44,6.96l3.23,.09Z"/></g><g><polyline class="cls-4" points="42.45 40.24 32.86 30.34 25.76 23"/><polyline class="cls-4" points="16.28 46.93 16.28 46.92 32.86 30.34 47.17 16.04 47.2 16"/><path class="cls-4" d="M8.11,6.74c-.09,1.91,1.34,29.26,8.58,9.2l.13-.36"/><path class="cls-4" d="M25.66,6.76c.05,1.39-.57,13.89-3.14,16.15-1.28,1.13-3.04-.3-5.44-6.96l-.13-.36"/><polyline class="cls-4" points="25.65 6.95 25.66 6.76 25.66 6.74 25.86 .33 25.86 .27"/><polyline class="cls-2" points="17.46 15.94 17.08 15.94 16.69 15.94 16.31 15.95"/><line class="cls-1" x1="8.39" y1="6.41" x2="8.37" y2="7"/><path class="cls-3" d="M47.17,16.04c.95,2.58,1.47,5.37,1.47,8.27,0,6.14-2.32,11.74-6.13,15.98-4.42,4.93-10.87,8.04-18.04,8.04-2.87,0-5.63-.5-8.18-1.41C6.95,43.59,.28,34.72,.28,24.31,.28,17.34,3.27,11.06,8.04,6.67,12.35,2.71,18.12,.28,24.46,.28c.47,0,.94,.01,1.4,.04,9.82,.56,18.07,6.93,21.3,15.71Z"/></g></g><text class="cls-7" transform="translate(48.2 21.51)"><tspan class="cls-10" x="0" y="0">W</tspan><tspan class="cls-8" x="18.43" y="0">orld</tspan><tspan class="cls-5" x="0" y="16"> </tspan><tspan class="cls-10" x="3.09" y="16">X</tspan><tspan class="cls-8" x="15.44" y="16">plore</tspan></text></svg>